<mxfile host="app.diagrams.net" modified="2024-01-27T05:21:21.447Z" agent="Mozilla/5.0 (Macintosh; Intel Mac OS X 10_15_7) AppleWebKit/537.36 (KHTML, like Gecko) Chrome/120.0.0.0 Safari/537.36" etag="UwPfj9zXD71q9aShCSqy" version="22.1.22" type="device">
  <diagram name="Page-1" id="0WtD6uzMAQrt6QQUO8gu">
    <mxGraphModel dx="954" dy="2300" grid="1" gridSize="10" guides="1" tooltips="1" connect="1" arrows="1" fold="1" page="1" pageScale="1" pageWidth="850" pageHeight="1100" math="0" shadow="0">
      <root>
        <mxCell id="0" />
        <mxCell id="1" parent="0" />
        <mxCell id="Q_86VK8ydC5ywKCQPrLK-2" value="" style="rounded=0;whiteSpace=wrap;html=1;" vertex="1" parent="1">
          <mxGeometry x="135" y="40" width="580" height="420" as="geometry" />
        </mxCell>
        <mxCell id="Q_86VK8ydC5ywKCQPrLK-4" value="Title" style="rounded=0;whiteSpace=wrap;html=1;" vertex="1" parent="1">
          <mxGeometry x="365" y="70" width="120" height="40" as="geometry" />
        </mxCell>
        <mxCell id="Q_86VK8ydC5ywKCQPrLK-5" value="Player 1&lt;br&gt;Score Tracker&lt;br&gt;and dice display" style="whiteSpace=wrap;html=1;aspect=fixed;" vertex="1" parent="1">
          <mxGeometry x="200" y="150" width="110" height="110" as="geometry" />
        </mxCell>
        <mxCell id="Q_86VK8ydC5ywKCQPrLK-6" value="Player 2&lt;br&gt;Score Tracker&lt;br&gt;and dice display" style="whiteSpace=wrap;html=1;aspect=fixed;" vertex="1" parent="1">
          <mxGeometry x="530" y="150" width="110" height="110" as="geometry" />
        </mxCell>
        <mxCell id="Q_86VK8ydC5ywKCQPrLK-7" value="Dark Mode" style="rounded=0;whiteSpace=wrap;html=1;" vertex="1" parent="1">
          <mxGeometry x="620" y="70" width="50" height="40" as="geometry" />
        </mxCell>
        <mxCell id="Q_86VK8ydC5ywKCQPrLK-8" value="Credit, Social Media, etc..," style="rounded=0;whiteSpace=wrap;html=1;" vertex="1" parent="1">
          <mxGeometry x="360" y="400" width="120" height="35" as="geometry" />
        </mxCell>
        <mxCell id="Q_86VK8ydC5ywKCQPrLK-9" value="Roll-Dice Button" style="rounded=0;whiteSpace=wrap;html=1;" vertex="1" parent="1">
          <mxGeometry x="370" y="280" width="100" height="40" as="geometry" />
        </mxCell>
        <mxCell id="Q_86VK8ydC5ywKCQPrLK-11" value="Reset Score" style="rounded=0;whiteSpace=wrap;html=1;" vertex="1" parent="1">
          <mxGeometry x="370" y="330" width="100" height="40" as="geometry" />
        </mxCell>
      </root>
    </mxGraphModel>
  </diagram>
</mxfile>
